ISO-10303-21;
HEADER;
/* Generated by software containing ST-Developer
 * from STEP Tools, Inc. (www.steptools.com) 
 */
/* OPTION: using custom schema-name function */

FILE_DESCRIPTION(
/* description */ (''),
/* implementation_level */ '2;1');

FILE_NAME(
/* name */ 'OFU08010-4.stp',
/* time_stamp */ '2017-03-13T10:55:56+08:00',
/* author */ (''),
/* organization */ (''),
/* preprocessor_version */ 'ST-DEVELOPER v11',
/* originating_system */ 'SIEMENS UGS NX 6.0',
/* authorisation */ '');

FILE_SCHEMA (('CONFIG_CONTROL_DESIGN'));
ENDSEC;

DATA;
#10=SHAPE_REPRESENTATION_RELATIONSHIP('None',
'relationship between OFU08010-4-None and OFU08010-4-None',#94,#11);
#11=ADVANCED_BREP_SHAPE_REPRESENTATION('OFU08010-4-None',(#114,#115,#116,
#117),#1093);
#12=CC_DESIGN_APPROVAL(#24,(#82));
#13=CC_DESIGN_APPROVAL(#25,(#84));
#14=CC_DESIGN_APPROVAL(#26,(#31));
#15=APPROVAL_PERSON_ORGANIZATION(#69,#24,#18);
#16=APPROVAL_PERSON_ORGANIZATION(#70,#25,#19);
#17=APPROVAL_PERSON_ORGANIZATION(#71,#26,#20);
#18=APPROVAL_ROLE('approver');
#19=APPROVAL_ROLE('approver');
#20=APPROVAL_ROLE('approver');
#21=APPROVAL_DATE_TIME(#39,#24);
#22=APPROVAL_DATE_TIME(#40,#25);
#23=APPROVAL_DATE_TIME(#41,#26);
#24=APPROVAL(#27,' ');
#25=APPROVAL(#28,' ');
#26=APPROVAL(#29,' ');
#27=APPROVAL_STATUS('not_yet_approved');
#28=APPROVAL_STATUS('not_yet_approved');
#29=APPROVAL_STATUS('not_yet_approved');
#30=CC_DESIGN_SECURITY_CLASSIFICATION(#31,(#84));
#31=SECURITY_CLASSIFICATION(' ',' ',#32);
#32=SECURITY_CLASSIFICATION_LEVEL('confidential');
#33=CC_DESIGN_DATE_AND_TIME_ASSIGNMENT(#37,#35,(#82));
#34=CC_DESIGN_DATE_AND_TIME_ASSIGNMENT(#38,#36,(#31));
#35=DATE_TIME_ROLE('creation_date');
#36=DATE_TIME_ROLE('classification_date');
#37=DATE_AND_TIME(#52,#42);
#38=DATE_AND_TIME(#53,#43);
#39=DATE_AND_TIME(#54,#44);
#40=DATE_AND_TIME(#55,#45);
#41=DATE_AND_TIME(#56,#46);
#42=LOCAL_TIME(0,0,0.,#47);
#43=LOCAL_TIME(0,0,0.,#48);
#44=LOCAL_TIME(0,0,0.,#49);
#45=LOCAL_TIME(0,0,0.,#50);
#46=LOCAL_TIME(0,0,0.,#51);
#47=COORDINATED_UNIVERSAL_TIME_OFFSET(0,0,.BEHIND.);
#48=COORDINATED_UNIVERSAL_TIME_OFFSET(0,0,.BEHIND.);
#49=COORDINATED_UNIVERSAL_TIME_OFFSET(0,0,.BEHIND.);
#50=COORDINATED_UNIVERSAL_TIME_OFFSET(0,0,.BEHIND.);
#51=COORDINATED_UNIVERSAL_TIME_OFFSET(0,0,.BEHIND.);
#52=CALENDAR_DATE(0,1,1);
#53=CALENDAR_DATE(0,1,1);
#54=CALENDAR_DATE(0,1,1);
#55=CALENDAR_DATE(0,1,1);
#56=CALENDAR_DATE(0,1,1);
#57=CC_DESIGN_PERSON_AND_ORGANIZATION_ASSIGNMENT(#65,#61,(#82,#84));
#58=CC_DESIGN_PERSON_AND_ORGANIZATION_ASSIGNMENT(#66,#62,(#86));
#59=CC_DESIGN_PERSON_AND_ORGANIZATION_ASSIGNMENT(#67,#63,(#84));
#60=CC_DESIGN_PERSON_AND_ORGANIZATION_ASSIGNMENT(#68,#64,(#31));
#61=PERSON_AND_ORGANIZATION_ROLE('creator');
#62=PERSON_AND_ORGANIZATION_ROLE('design_owner');
#63=PERSON_AND_ORGANIZATION_ROLE('design_supplier');
#64=PERSON_AND_ORGANIZATION_ROLE('classification_officer');
#65=PERSON_AND_ORGANIZATION(#79,#72);
#66=PERSON_AND_ORGANIZATION(#79,#73);
#67=PERSON_AND_ORGANIZATION(#79,#74);
#68=PERSON_AND_ORGANIZATION(#79,#75);
#69=PERSON_AND_ORGANIZATION(#79,#76);
#70=PERSON_AND_ORGANIZATION(#79,#77);
#71=PERSON_AND_ORGANIZATION(#79,#78);
#72=ORGANIZATION(' ',' ',' ');
#73=ORGANIZATION(' ',' ',' ');
#74=ORGANIZATION(' ',' ',' ');
#75=ORGANIZATION(' ',' ',' ');
#76=ORGANIZATION(' ',' ',' ');
#77=ORGANIZATION(' ',' ',' ');
#78=ORGANIZATION(' ',' ',' ');
#79=PERSON(' ',' ',' ',(' '),$,$);
#80=SHAPE_DEFINITION_REPRESENTATION(#81,#94);
#81=PRODUCT_DEFINITION_SHAPE('','',#82);
#82=PRODUCT_DEFINITION(' ','',#84,#83);
#83=DESIGN_CONTEXT('',#93,'design');
#84=PRODUCT_DEFINITION_FORMATION_WITH_SPECIFIED_SOURCE(' ',' ',#86,.NOT_KNOWN.);
#85=PRODUCT_RELATED_PRODUCT_CATEGORY('detail','',(#86));
#86=PRODUCT('OFU08010-4','OFU08010-4',' ',(#91));
#87=PRODUCT_CATEGORY_RELATIONSHIP(' ',' ',#89,#90);
#88=PRODUCT_CATEGORY_RELATIONSHIP('','',#90,#85);
#89=PRODUCT_CATEGORY('part',' ');
#90=PRODUCT_CATEGORY(' ','');
#91=MECHANICAL_CONTEXT(' ',#93,'mechanical');
#92=APPLICATION_PROTOCOL_DEFINITION('international standard',
'config_control_design',1994,#93);
#93=APPLICATION_CONTEXT(
'configuration controlled 3D designs of mechanical parts and assemblies');
#94=SHAPE_REPRESENTATION('OFU08010-4-None',(#602),#1093);
#95=TOROIDAL_SURFACE('',#650,52.,0.5);
#96=LINE('',#919,#104);
#97=LINE('',#923,#105);
#98=LINE('',#992,#106);
#99=LINE('',#996,#107);
#100=LINE('',#998,#108);
#101=LINE('',#999,#109);
#102=LINE('',#1001,#110);
#103=LINE('',#1002,#111);
#104=VECTOR('',#700,1.);
#105=VECTOR('',#703,1.);
#106=VECTOR('',#714,1.);
#107=VECTOR('',#717,1.);
#108=VECTOR('',#720,1.);
#109=VECTOR('',#721,1.);
#110=VECTOR('',#724,1.);
#111=VECTOR('',#725,1.);
#112=B_SPLINE_CURVE_WITH_KNOTS('',3,(#856,#857,#858,#859,#860,#861,#862,
#863,#864,#865,#866,#867,#868,#869,#870,#871,#872,#873,#874,#875,#876,#877,
#878,#879,#880,#881,#882,#883,#884,#885,#886,#887,#888,#889,#890,#891,#892,
#893,#894,#895,#896,#897,#898,#899,#900,#901,#902,#903,#904,#905,#906,#907,
#908,#909,#910,#911,#912,#913),.UNSPECIFIED.,.T.,.F.,(1,3,3,3,3,3,3,3,3,
3,3,3,3,3,3,3,3,3,3,3,3,1),(-0.033741675537959,0.,0.0536587652446279,0.107314670814791,
0.161013453990417,0.214741518524648,0.26842340416806,0.322055818595399,0.375712489519618,
0.429429369351355,0.483148577521993,0.536808388234979,0.590439849352767,
0.644118187439473,0.697845499643331,0.751547487978893,0.805189464098637,
0.858830301515376,0.912530569267288,0.966258324462041,1.,1.05365876524463),
 .UNSPECIFIED.);
#113=B_SPLINE_CURVE_WITH_KNOTS('',3,(#924,#925,#926,#927,#928,#929,#930,
#931,#932,#933,#934,#935,#936,#937,#938,#939,#940,#941,#942,#943,#944,#945,
#946,#947,#948,#949,#950,#951,#952,#953,#954,#955,#956,#957,#958,#959,#960,
#961,#962,#963,#964,#965,#966,#967,#968,#969,#970,#971,#972,#973,#974,#975,
#976,#977,#978,#979,#980,#981),.UNSPECIFIED.,.T.,.F.,(1,3,3,3,3,3,3,3,3,
3,3,3,3,3,3,3,3,3,3,3,3,1),(-0.0337131708684838,0.,0.0536619020307475,0.107321146137594,
0.161020260228108,0.214746740538846,0.268430175002155,0.322067331777386,
0.375727208506393,0.429443310750036,0.483161450607033,0.536824303871802,
0.590460849231434,0.64414095508608,0.697866698135307,0.751568889075438,0.805214984821443,
0.858860049662368,0.912560686526421,0.966286829131516,1.,1.05366190203075),
 .UNSPECIFIED.);
#114=MANIFOLD_SOLID_BREP('',#118);
#115=MANIFOLD_SOLID_BREP('',#119);
#116=MANIFOLD_SOLID_BREP('',#120);
#117=MANIFOLD_SOLID_BREP('',#121);
#118=CLOSED_SHELL('',(#141,#142,#143));
#119=CLOSED_SHELL('',(#144,#145,#146,#147,#148,#149,#150,#151,#152,#153,
#154,#155,#156,#157,#158,#159,#160,#161,#162,#163,#164,#165,#166,#167,#168));
#120=CLOSED_SHELL('',(#169,#170,#171,#172));
#121=CLOSED_SHELL('',(#173,#174,#175,#176));
#122=PLANE('',#606);
#123=PLANE('',#607);
#124=PLANE('',#616);
#125=PLANE('',#620);
#126=PLANE('',#621);
#127=PLANE('',#631);
#128=PLANE('',#641);
#129=PLANE('',#646);
#130=PLANE('',#649);
#131=PLANE('',#662);
#132=PLANE('',#670);
#133=PLANE('',#671);
#134=PLANE('',#678);
#135=PLANE('',#679);
#136=FACE_OUTER_BOUND('',#279,.T.);
#137=FACE_OUTER_BOUND('',#280,.T.);
#138=FACE_OUTER_BOUND('',#288,.T.);
#139=FACE_OUTER_BOUND('',#289,.T.);
#140=FACE_OUTER_BOUND('',#290,.T.);
#141=ADVANCED_FACE('',(#198,#199),#177,.T.);
#142=ADVANCED_FACE('',(#136),#122,.F.);
#143=ADVANCED_FACE('',(#137),#123,.T.);
#144=ADVANCED_FACE('',(#200,#201,#202),#178,.F.);
#145=ADVANCED_FACE('',(#203,#204),#179,.T.);
#146=ADVANCED_FACE('',(#205,#206),#124,.F.);
#147=ADVANCED_FACE('',(#138),#180,.T.);
#148=ADVANCED_FACE('',(#139),#125,.F.);
#149=ADVANCED_FACE('',(#140),#126,.F.);
#150=ADVANCED_FACE('',(#207,#208,#209,#210,#211,#212,#213,#214,#215,#216),
#127,.T.);
#151=ADVANCED_FACE('',(#217,#218,#219,#220,#221,#222,#223,#224,#225,#226),
#128,.F.);
#152=ADVANCED_FACE('',(#227,#228),#181,.T.);
#153=ADVANCED_FACE('',(#229,#230),#182,.F.);
#154=ADVANCED_FACE('',(#231,#232),#129,.T.);
#155=ADVANCED_FACE('',(#233,#234),#183,.F.);
#156=ADVANCED_FACE('',(#235,#236),#130,.F.);
#157=ADVANCED_FACE('',(#237,#238),#95,.T.);
#158=ADVANCED_FACE('',(#239,#240),#184,.F.);
#159=ADVANCED_FACE('',(#241,#242),#185,.F.);
#160=ADVANCED_FACE('',(#243,#244),#186,.F.);
#161=ADVANCED_FACE('',(#245,#246),#187,.F.);
#162=ADVANCED_FACE('',(#247,#248),#188,.F.);
#163=ADVANCED_FACE('',(#249,#250),#189,.F.);
#164=ADVANCED_FACE('',(#251,#252),#190,.F.);
#165=ADVANCED_FACE('',(#253,#254),#191,.F.);
#166=ADVANCED_FACE('',(#255,#256),#192,.F.);
#167=ADVANCED_FACE('',(#257,#258),#131,.T.);
#168=ADVANCED_FACE('',(#259,#260),#193,.F.);
#169=ADVANCED_FACE('',(#261,#262),#194,.T.);
#170=ADVANCED_FACE('',(#263,#264),#195,.F.);
#171=ADVANCED_FACE('',(#265,#266),#132,.T.);
#172=ADVANCED_FACE('',(#267,#268),#133,.F.);
#173=ADVANCED_FACE('',(#269,#270),#196,.T.);
#174=ADVANCED_FACE('',(#271,#272),#197,.F.);
#175=ADVANCED_FACE('',(#273,#274),#134,.T.);
#176=ADVANCED_FACE('',(#275,#276),#135,.F.);
#177=CYLINDRICAL_SURFACE('',#605,40.);
#178=CYLINDRICAL_SURFACE('',#610,40.);
#179=CYLINDRICAL_SURFACE('',#613,72.5);
#180=CYLINDRICAL_SURFACE('',#619,72.5);
#181=CYLINDRICAL_SURFACE('',#643,52.5);
#182=CYLINDRICAL_SURFACE('',#645,46.5);
#183=CYLINDRICAL_SURFACE('',#648,46.5);
#184=CYLINDRICAL_SURFACE('',#651,6.75);
#185=CYLINDRICAL_SURFACE('',#652,6.75);
#186=CYLINDRICAL_SURFACE('',#653,6.75);
#187=CYLINDRICAL_SURFACE('',#654,6.75);
#188=CYLINDRICAL_SURFACE('',#655,6.75);
#189=CYLINDRICAL_SURFACE('',#656,6.75);
#190=CYLINDRICAL_SURFACE('',#657,6.75);
#191=CYLINDRICAL_SURFACE('',#658,6.75);
#192=CYLINDRICAL_SURFACE('',#660,1.99999999999999);
#193=CYLINDRICAL_SURFACE('',#663,3.49999999999999);
#194=CYLINDRICAL_SURFACE('',#666,46.5);
#195=CYLINDRICAL_SURFACE('',#669,40.);
#196=CYLINDRICAL_SURFACE('',#674,46.5);
#197=CYLINDRICAL_SURFACE('',#677,40.);
#198=FACE_BOUND('',#277,.T.);
#199=FACE_BOUND('',#278,.T.);
#200=FACE_BOUND('',#281,.T.);
#201=FACE_BOUND('',#282,.T.);
#202=FACE_BOUND('',#283,.T.);
#203=FACE_BOUND('',#284,.T.);
#204=FACE_BOUND('',#285,.T.);
#205=FACE_BOUND('',#286,.T.);
#206=FACE_BOUND('',#287,.T.);
#207=FACE_BOUND('',#291,.T.);
#208=FACE_BOUND('',#292,.T.);
#209=FACE_BOUND('',#293,.T.);
#210=FACE_BOUND('',#294,.T.);
#211=FACE_BOUND('',#295,.T.);
#212=FACE_BOUND('',#296,.T.);
#213=FACE_BOUND('',#297,.T.);
#214=FACE_BOUND('',#298,.T.);
#215=FACE_BOUND('',#299,.T.);
#216=FACE_BOUND('',#300,.T.);
#217=FACE_BOUND('',#301,.T.);
#218=FACE_BOUND('',#302,.T.);
#219=FACE_BOUND('',#303,.T.);
#220=FACE_BOUND('',#304,.T.);
#221=FACE_BOUND('',#305,.T.);
#222=FACE_BOUND('',#306,.T.);
#223=FACE_BOUND('',#307,.T.);
#224=FACE_BOUND('',#308,.T.);
#225=FACE_BOUND('',#309,.T.);
#226=FACE_BOUND('',#310,.T.);
#227=FACE_BOUND('',#311,.T.);
#228=FACE_BOUND('',#312,.T.);
#229=FACE_BOUND('',#313,.T.);
#230=FACE_BOUND('',#314,.T.);
#231=FACE_BOUND('',#315,.T.);
#232=FACE_BOUND('',#316,.T.);
#233=FACE_BOUND('',#317,.T.);
#234=FACE_BOUND('',#318,.T.);
#235=FACE_BOUND('',#319,.T.);
#236=FACE_BOUND('',#320,.T.);
#237=FACE_BOUND('',#321,.T.);
#238=FACE_BOUND('',#322,.T.);
#239=FACE_BOUND('',#323,.T.);
#240=FACE_BOUND('',#324,.T.);
#241=FACE_BOUND('',#325,.T.);
#242=FACE_BOUND('',#326,.T.);
#243=FACE_BOUND('',#327,.T.);
#244=FACE_BOUND('',#328,.T.);
#245=FACE_BOUND('',#329,.T.);
#246=FACE_BOUND('',#330,.T.);
#247=FACE_BOUND('',#331,.T.);
#248=FACE_BOUND('',#332,.T.);
#249=FACE_BOUND('',#333,.T.);
#250=FACE_BOUND('',#334,.T.);
#251=FACE_BOUND('',#335,.T.);
#252=FACE_BOUND('',#336,.T.);
#253=FACE_BOUND('',#337,.T.);
#254=FACE_BOUND('',#338,.T.);
#255=FACE_BOUND('',#339,.T.);
#256=FACE_BOUND('',#340,.T.);
#257=FACE_BOUND('',#341,.T.);
#258=FACE_BOUND('',#342,.T.);
#259=FACE_BOUND('',#343,.T.);
#260=FACE_BOUND('',#344,.T.);
#261=FACE_BOUND('',#345,.T.);
#262=FACE_BOUND('',#346,.T.);
#263=FACE_BOUND('',#347,.T.);
#264=FACE_BOUND('',#348,.T.);
#265=FACE_BOUND('',#349,.T.);
#266=FACE_BOUND('',#350,.T.);
#267=FACE_BOUND('',#351,.T.);
#268=FACE_BOUND('',#352,.T.);
#269=FACE_BOUND('',#353,.T.);
#270=FACE_BOUND('',#354,.T.);
#271=FACE_BOUND('',#355,.T.);
#272=FACE_BOUND('',#356,.T.);
#273=FACE_BOUND('',#357,.T.);
#274=FACE_BOUND('',#358,.T.);
#275=FACE_BOUND('',#359,.T.);
#276=FACE_BOUND('',#360,.T.);
#277=EDGE_LOOP('',(#361));
#278=EDGE_LOOP('',(#362));
#279=EDGE_LOOP('',(#363));
#280=EDGE_LOOP('',(#364));
#281=EDGE_LOOP('',(#365));
#282=EDGE_LOOP('',(#366));
#283=EDGE_LOOP('',(#367));
#284=EDGE_LOOP('',(#368,#369,#370,#371));
#285=EDGE_LOOP('',(#372));
#286=EDGE_LOOP('',(#373));
#287=EDGE_LOOP('',(#374));
#288=EDGE_LOOP('',(#375,#376,#377,#378));
#289=EDGE_LOOP('',(#379,#380,#381,#382));
#290=EDGE_LOOP('',(#383,#384,#385,#386));
#291=EDGE_LOOP('',(#387));
#292=EDGE_LOOP('',(#388));
#293=EDGE_LOOP('',(#389));
#294=EDGE_LOOP('',(#390));
#295=EDGE_LOOP('',(#391));
#296=EDGE_LOOP('',(#392));
#297=EDGE_LOOP('',(#393));
#298=EDGE_LOOP('',(#394));
#299=EDGE_LOOP('',(#395));
#300=EDGE_LOOP('',(#396,#397,#398,#399));
#301=EDGE_LOOP('',(#400));
#302=EDGE_LOOP('',(#401));
#303=EDGE_LOOP('',(#402));
#304=EDGE_LOOP('',(#403));
#305=EDGE_LOOP('',(#404));
#306=EDGE_LOOP('',(#405));
#307=EDGE_LOOP('',(#406));
#308=EDGE_LOOP('',(#407));
#309=EDGE_LOOP('',(#408));
#310=EDGE_LOOP('',(#409,#410,#411,#412));
#311=EDGE_LOOP('',(#413));
#312=EDGE_LOOP('',(#414));
#313=EDGE_LOOP('',(#415));
#314=EDGE_LOOP('',(#416));
#315=EDGE_LOOP('',(#417));
#316=EDGE_LOOP('',(#418));
#317=EDGE_LOOP('',(#419));
#318=EDGE_LOOP('',(#420));
#319=EDGE_LOOP('',(#421));
#320=EDGE_LOOP('',(#422));
#321=EDGE_LOOP('',(#423));
#322=EDGE_LOOP('',(#424));
#323=EDGE_LOOP('',(#425));
#324=EDGE_LOOP('',(#426));
#325=EDGE_LOOP('',(#427));
#326=EDGE_LOOP('',(#428));
#327=EDGE_LOOP('',(#429));
#328=EDGE_LOOP('',(#430));
#329=EDGE_LOOP('',(#431));
#330=EDGE_LOOP('',(#432));
#331=EDGE_LOOP('',(#433));
#332=EDGE_LOOP('',(#434));
#333=EDGE_LOOP('',(#435));
#334=EDGE_LOOP('',(#436));
#335=EDGE_LOOP('',(#437));
#336=EDGE_LOOP('',(#438));
#337=EDGE_LOOP('',(#439));
#338=EDGE_LOOP('',(#440));
#339=EDGE_LOOP('',(#441));
#340=EDGE_LOOP('',(#442));
#341=EDGE_LOOP('',(#443));
#342=EDGE_LOOP('',(#444));
#343=EDGE_LOOP('',(#445));
#344=EDGE_LOOP('',(#446));
#345=EDGE_LOOP('',(#447));
#346=EDGE_LOOP('',(#448));
#347=EDGE_LOOP('',(#449));
#348=EDGE_LOOP('',(#450));
#349=EDGE_LOOP('',(#451));
#350=EDGE_LOOP('',(#452));
#351=EDGE_LOOP('',(#453));
#352=EDGE_LOOP('',(#454));
#353=EDGE_LOOP('',(#455));
#354=EDGE_LOOP('',(#456));
#355=EDGE_LOOP('',(#457));
#356=EDGE_LOOP('',(#458));
#357=EDGE_LOOP('',(#459));
#358=EDGE_LOOP('',(#460));
#359=EDGE_LOOP('',(#461));
#360=EDGE_LOOP('',(#462));
#361=ORIENTED_EDGE('',*,*,#510,.T.);
#362=ORIENTED_EDGE('',*,*,#511,.F.);
#363=ORIENTED_EDGE('',*,*,#510,.F.);
#364=ORIENTED_EDGE('',*,*,#511,.T.);
#365=ORIENTED_EDGE('',*,*,#512,.F.);
#366=ORIENTED_EDGE('',*,*,#513,.T.);
#367=ORIENTED_EDGE('',*,*,#514,.F.);
#368=ORIENTED_EDGE('',*,*,#515,.T.);
#369=ORIENTED_EDGE('',*,*,#516,.F.);
#370=ORIENTED_EDGE('',*,*,#517,.F.);
#371=ORIENTED_EDGE('',*,*,#518,.T.);
#372=ORIENTED_EDGE('',*,*,#519,.T.);
#373=ORIENTED_EDGE('',*,*,#520,.T.);
#374=ORIENTED_EDGE('',*,*,#521,.F.);
#375=ORIENTED_EDGE('',*,*,#522,.T.);
#376=ORIENTED_EDGE('',*,*,#523,.F.);
#377=ORIENTED_EDGE('',*,*,#524,.F.);
#378=ORIENTED_EDGE('',*,*,#525,.T.);
#379=ORIENTED_EDGE('',*,*,#526,.T.);
#380=ORIENTED_EDGE('',*,*,#518,.F.);
#381=ORIENTED_EDGE('',*,*,#527,.F.);
#382=ORIENTED_EDGE('',*,*,#523,.T.);
#383=ORIENTED_EDGE('',*,*,#528,.T.);
#384=ORIENTED_EDGE('',*,*,#525,.F.);
#385=ORIENTED_EDGE('',*,*,#529,.F.);
#386=ORIENTED_EDGE('',*,*,#516,.T.);
#387=ORIENTED_EDGE('',*,*,#530,.F.);
#388=ORIENTED_EDGE('',*,*,#531,.F.);
#389=ORIENTED_EDGE('',*,*,#532,.F.);
#390=ORIENTED_EDGE('',*,*,#533,.F.);
#391=ORIENTED_EDGE('',*,*,#534,.F.);
#392=ORIENTED_EDGE('',*,*,#535,.F.);
#393=ORIENTED_EDGE('',*,*,#536,.F.);
#394=ORIENTED_EDGE('',*,*,#537,.F.);
#395=ORIENTED_EDGE('',*,*,#538,.F.);
#396=ORIENTED_EDGE('',*,*,#524,.T.);
#397=ORIENTED_EDGE('',*,*,#527,.T.);
#398=ORIENTED_EDGE('',*,*,#517,.T.);
#399=ORIENTED_EDGE('',*,*,#529,.T.);
#400=ORIENTED_EDGE('',*,*,#539,.F.);
#401=ORIENTED_EDGE('',*,*,#540,.F.);
#402=ORIENTED_EDGE('',*,*,#541,.F.);
#403=ORIENTED_EDGE('',*,*,#542,.F.);
#404=ORIENTED_EDGE('',*,*,#543,.T.);
#405=ORIENTED_EDGE('',*,*,#544,.T.);
#406=ORIENTED_EDGE('',*,*,#545,.T.);
#407=ORIENTED_EDGE('',*,*,#546,.T.);
#408=ORIENTED_EDGE('',*,*,#547,.T.);
#409=ORIENTED_EDGE('',*,*,#522,.F.);
#410=ORIENTED_EDGE('',*,*,#528,.F.);
#411=ORIENTED_EDGE('',*,*,#515,.F.);
#412=ORIENTED_EDGE('',*,*,#526,.F.);
#413=ORIENTED_EDGE('',*,*,#548,.T.);
#414=ORIENTED_EDGE('',*,*,#538,.T.);
#415=ORIENTED_EDGE('',*,*,#521,.T.);
#416=ORIENTED_EDGE('',*,*,#549,.F.);
#417=ORIENTED_EDGE('',*,*,#549,.T.);
#418=ORIENTED_EDGE('',*,*,#512,.T.);
#419=ORIENTED_EDGE('',*,*,#550,.T.);
#420=ORIENTED_EDGE('',*,*,#547,.F.);
#421=ORIENTED_EDGE('',*,*,#550,.F.);
#422=ORIENTED_EDGE('',*,*,#513,.F.);
#423=ORIENTED_EDGE('',*,*,#520,.F.);
#424=ORIENTED_EDGE('',*,*,#548,.F.);
#425=ORIENTED_EDGE('',*,*,#537,.T.);
#426=ORIENTED_EDGE('',*,*,#546,.F.);
#427=ORIENTED_EDGE('',*,*,#536,.T.);
#428=ORIENTED_EDGE('',*,*,#545,.F.);
#429=ORIENTED_EDGE('',*,*,#535,.T.);
#430=ORIENTED_EDGE('',*,*,#544,.F.);
#431=ORIENTED_EDGE('',*,*,#534,.T.);
#432=ORIENTED_EDGE('',*,*,#543,.F.);
#433=ORIENTED_EDGE('',*,*,#533,.T.);
#434=ORIENTED_EDGE('',*,*,#542,.T.);
#435=ORIENTED_EDGE('',*,*,#532,.T.);
#436=ORIENTED_EDGE('',*,*,#541,.T.);
#437=ORIENTED_EDGE('',*,*,#531,.T.);
#438=ORIENTED_EDGE('',*,*,#540,.T.);
#439=ORIENTED_EDGE('',*,*,#530,.T.);
#440=ORIENTED_EDGE('',*,*,#539,.T.);
#441=ORIENTED_EDGE('',*,*,#551,.F.);
#442=ORIENTED_EDGE('',*,*,#514,.T.);
#443=ORIENTED_EDGE('',*,*,#551,.T.);
#444=ORIENTED_EDGE('',*,*,#552,.F.);
#445=ORIENTED_EDGE('',*,*,#552,.T.);
#446=ORIENTED_EDGE('',*,*,#519,.F.);
#447=ORIENTED_EDGE('',*,*,#553,.F.);
#448=ORIENTED_EDGE('',*,*,#554,.T.);
#449=ORIENTED_EDGE('',*,*,#555,.F.);
#450=ORIENTED_EDGE('',*,*,#556,.T.);
#451=ORIENTED_EDGE('',*,*,#553,.T.);
#452=ORIENTED_EDGE('',*,*,#555,.T.);
#453=ORIENTED_EDGE('',*,*,#554,.F.);
#454=ORIENTED_EDGE('',*,*,#556,.F.);
#455=ORIENTED_EDGE('',*,*,#557,.T.);
#456=ORIENTED_EDGE('',*,*,#558,.F.);
#457=ORIENTED_EDGE('',*,*,#559,.T.);
#458=ORIENTED_EDGE('',*,*,#560,.F.);
#459=ORIENTED_EDGE('',*,*,#557,.F.);
#460=ORIENTED_EDGE('',*,*,#559,.F.);
#461=ORIENTED_EDGE('',*,*,#558,.T.);
#462=ORIENTED_EDGE('',*,*,#560,.T.);
#463=VERTEX_POINT('',#846);
#464=VERTEX_POINT('',#848);
#465=VERTEX_POINT('',#853);
#466=VERTEX_POINT('',#855);
#467=VERTEX_POINT('',#914);
#468=VERTEX_POINT('',#917);
#469=VERTEX_POINT('',#918);
#470=VERTEX_POINT('',#920);
#471=VERTEX_POINT('',#922);
#472=VERTEX_POINT('',#982);
#473=VERTEX_POINT('',#985);
#474=VERTEX_POINT('',#987);
#475=VERTEX_POINT('',#990);
#476=VERTEX_POINT('',#991);
#477=VERTEX_POINT('',#993);
#478=VERTEX_POINT('',#995);
#479=VERTEX_POINT('',#1005);
#480=VERTEX_POINT('',#1007);
#481=VERTEX_POINT('',#1009);
#482=VERTEX_POINT('',#1011);
#483=VERTEX_POINT('',#1013);
#484=VERTEX_POINT('',#1015);
#485=VERTEX_POINT('',#1017);
#486=VERTEX_POINT('',#1019);
#487=VERTEX_POINT('',#1021);
#488=VERTEX_POINT('',#1024);
#489=VERTEX_POINT('',#1026);
#490=VERTEX_POINT('',#1028);
#491=VERTEX_POINT('',#1030);
#492=VERTEX_POINT('',#1032);
#493=VERTEX_POINT('',#1034);
#494=VERTEX_POINT('',#1036);
#495=VERTEX_POINT('',#1038);
#496=VERTEX_POINT('',#1040);
#497=VERTEX_POINT('',#1043);
#498=VERTEX_POINT('',#1046);
#499=VERTEX_POINT('',#1050);
#500=VERTEX_POINT('',#1063);
#501=VERTEX_POINT('',#1066);
#502=VERTEX_POINT('',#1070);
#503=VERTEX_POINT('',#1072);
#504=VERTEX_POINT('',#1075);
#505=VERTEX_POINT('',#1077);
#506=VERTEX_POINT('',#1082);
#507=VERTEX_POINT('',#1084);
#508=VERTEX_POINT('',#1087);
#509=VERTEX_POINT('',#1089);
#510=EDGE_CURVE('',#463,#463,#561,.T.);
#511=EDGE_CURVE('',#464,#464,#562,.T.);
#512=EDGE_CURVE('',#465,#465,#563,.T.);
#513=EDGE_CURVE('',#466,#466,#564,.T.);
#514=EDGE_CURVE('',#467,#467,#112,.T.);
#515=EDGE_CURVE('',#468,#469,#565,.T.);
#516=EDGE_CURVE('',#470,#469,#96,.T.);
#517=EDGE_CURVE('',#471,#470,#566,.T.);
#518=EDGE_CURVE('',#471,#468,#97,.T.);
#519=EDGE_CURVE('',#472,#472,#113,.T.);
#520=EDGE_CURVE('',#473,#473,#567,.T.);
#521=EDGE_CURVE('',#474,#474,#568,.T.);
#522=EDGE_CURVE('',#475,#476,#569,.T.);
#523=EDGE_CURVE('',#477,#476,#98,.T.);
#524=EDGE_CURVE('',#478,#477,#570,.T.);
#525=EDGE_CURVE('',#478,#475,#99,.T.);
#526=EDGE_CURVE('',#476,#468,#100,.T.);
#527=EDGE_CURVE('',#477,#471,#101,.T.);
#528=EDGE_CURVE('',#469,#475,#102,.T.);
#529=EDGE_CURVE('',#470,#478,#103,.T.);
#530=EDGE_CURVE('',#479,#479,#571,.T.);
#531=EDGE_CURVE('',#480,#480,#572,.T.);
#532=EDGE_CURVE('',#481,#481,#573,.T.);
#533=EDGE_CURVE('',#482,#482,#574,.T.);
#534=EDGE_CURVE('',#483,#483,#575,.T.);
#535=EDGE_CURVE('',#484,#484,#576,.T.);
#536=EDGE_CURVE('',#485,#485,#577,.T.);
#537=EDGE_CURVE('',#486,#486,#578,.T.);
#538=EDGE_CURVE('',#487,#487,#579,.T.);
#539=EDGE_CURVE('',#488,#488,#580,.T.);
#540=EDGE_CURVE('',#489,#489,#581,.T.);
#541=EDGE_CURVE('',#490,#490,#582,.T.);
#542=EDGE_CURVE('',#491,#491,#583,.T.);
#543=EDGE_CURVE('',#492,#492,#584,.T.);
#544=EDGE_CURVE('',#493,#493,#585,.T.);
#545=EDGE_CURVE('',#494,#494,#586,.T.);
#546=EDGE_CURVE('',#495,#495,#587,.T.);
#547=EDGE_CURVE('',#496,#496,#588,.T.);
#548=EDGE_CURVE('',#497,#497,#589,.T.);
#549=EDGE_CURVE('',#498,#498,#590,.T.);
#550=EDGE_CURVE('',#499,#499,#591,.T.);
#551=EDGE_CURVE('',#500,#500,#592,.T.);
#552=EDGE_CURVE('',#501,#501,#593,.T.);
#553=EDGE_CURVE('',#502,#502,#594,.T.);
#554=EDGE_CURVE('',#503,#503,#595,.T.);
#555=EDGE_CURVE('',#504,#504,#596,.T.);
#556=EDGE_CURVE('',#505,#505,#597,.T.);
#557=EDGE_CURVE('',#506,#506,#598,.T.);
#558=EDGE_CURVE('',#507,#507,#599,.T.);
#559=EDGE_CURVE('',#508,#508,#600,.T.);
#560=EDGE_CURVE('',#509,#509,#601,.T.);
#561=CIRCLE('',#603,40.);
#562=CIRCLE('',#604,40.);
#563=CIRCLE('',#608,40.);
#564=CIRCLE('',#609,40.);
#565=CIRCLE('',#611,72.5);
#566=CIRCLE('',#612,72.5);
#567=CIRCLE('',#614,52.);
#568=CIRCLE('',#615,46.5);
#569=CIRCLE('',#617,72.5);
#570=CIRCLE('',#618,72.5);
#571=CIRCLE('',#622,6.75);
#572=CIRCLE('',#623,6.75);
#573=CIRCLE('',#624,6.75);
#574=CIRCLE('',#625,6.75);
#575=CIRCLE('',#626,6.75);
#576=CIRCLE('',#627,6.75);
#577=CIRCLE('',#628,6.75);
#578=CIRCLE('',#629,6.75);
#579=CIRCLE('',#630,52.5);
#580=CIRCLE('',#632,6.75);
#581=CIRCLE('',#633,6.75);
#582=CIRCLE('',#634,6.75);
#583=CIRCLE('',#635,6.75);
#584=CIRCLE('',#636,6.75);
#585=CIRCLE('',#637,6.75);
#586=CIRCLE('',#638,6.75);
#587=CIRCLE('',#639,6.75);
#588=CIRCLE('',#640,46.5);
#589=CIRCLE('',#642,52.5);
#590=CIRCLE('',#644,46.5);
#591=CIRCLE('',#647,46.5);
#592=CIRCLE('',#659,1.99999999999999);
#593=CIRCLE('',#661,3.49999999999999);
#594=CIRCLE('',#664,46.5);
#595=CIRCLE('',#665,46.5);
#596=CIRCLE('',#667,40.);
#597=CIRCLE('',#668,40.);
#598=CIRCLE('',#672,46.5);
#599=CIRCLE('',#673,46.5);
#600=CIRCLE('',#675,40.);
#601=CIRCLE('',#676,40.);
#602=AXIS2_PLACEMENT_3D('',#844,#680,#681);
#603=AXIS2_PLACEMENT_3D('',#845,#682,#683);
#604=AXIS2_PLACEMENT_3D('',#847,#684,#685);
#605=AXIS2_PLACEMENT_3D('',#849,#686,#687);
#606=AXIS2_PLACEMENT_3D('',#850,#688,#689);
#607=AXIS2_PLACEMENT_3D('',#851,#690,#691);
#608=AXIS2_PLACEMENT_3D('',#852,#692,#693);
#609=AXIS2_PLACEMENT_3D('',#854,#694,#695);
#610=AXIS2_PLACEMENT_3D('',#915,#696,#697);
#611=AXIS2_PLACEMENT_3D('',#916,#698,#699);
#612=AXIS2_PLACEMENT_3D('',#921,#701,#702);
#613=AXIS2_PLACEMENT_3D('',#983,#704,#705);
#614=AXIS2_PLACEMENT_3D('',#984,#706,#707);
#615=AXIS2_PLACEMENT_3D('',#986,#708,#709);
#616=AXIS2_PLACEMENT_3D('',#988,#710,#711);
#617=AXIS2_PLACEMENT_3D('',#989,#712,#713);
#618=AXIS2_PLACEMENT_3D('',#994,#715,#716);
#619=AXIS2_PLACEMENT_3D('',#997,#718,#719);
#620=AXIS2_PLACEMENT_3D('',#1000,#722,#723);
#621=AXIS2_PLACEMENT_3D('',#1003,#726,#727);
#622=AXIS2_PLACEMENT_3D('',#1004,#728,#729);
#623=AXIS2_PLACEMENT_3D('',#1006,#730,#731);
#624=AXIS2_PLACEMENT_3D('',#1008,#732,#733);
#625=AXIS2_PLACEMENT_3D('',#1010,#734,#735);
#626=AXIS2_PLACEMENT_3D('',#1012,#736,#737);
#627=AXIS2_PLACEMENT_3D('',#1014,#738,#739);
#628=AXIS2_PLACEMENT_3D('',#1016,#740,#741);
#629=AXIS2_PLACEMENT_3D('',#1018,#742,#743);
#630=AXIS2_PLACEMENT_3D('',#1020,#744,#745);
#631=AXIS2_PLACEMENT_3D('',#1022,#746,#747);
#632=AXIS2_PLACEMENT_3D('',#1023,#748,#749);
#633=AXIS2_PLACEMENT_3D('',#1025,#750,#751);
#634=AXIS2_PLACEMENT_3D('',#1027,#752,#753);
#635=AXIS2_PLACEMENT_3D('',#1029,#754,#755);
#636=AXIS2_PLACEMENT_3D('',#1031,#756,#757);
#637=AXIS2_PLACEMENT_3D('',#1033,#758,#759);
#638=AXIS2_PLACEMENT_3D('',#1035,#760,#761);
#639=AXIS2_PLACEMENT_3D('',#1037,#762,#763);
#640=AXIS2_PLACEMENT_3D('',#1039,#764,#765);
#641=AXIS2_PLACEMENT_3D('',#1041,#766,#767);
#642=AXIS2_PLACEMENT_3D('',#1042,#768,#769);
#643=AXIS2_PLACEMENT_3D('',#1044,#770,#771);
#644=AXIS2_PLACEMENT_3D('',#1045,#772,#773);
#645=AXIS2_PLACEMENT_3D('',#1047,#774,#775);
#646=AXIS2_PLACEMENT_3D('',#1048,#776,#777);
#647=AXIS2_PLACEMENT_3D('',#1049,#778,#779);
#648=AXIS2_PLACEMENT_3D('',#1051,#780,#781);
#649=AXIS2_PLACEMENT_3D('',#1052,#782,#783);
#650=AXIS2_PLACEMENT_3D('',#1053,#784,#785);
#651=AXIS2_PLACEMENT_3D('',#1054,#786,#787);
#652=AXIS2_PLACEMENT_3D('',#1055,#788,#789);
#653=AXIS2_PLACEMENT_3D('',#1056,#790,#791);
#654=AXIS2_PLACEMENT_3D('',#1057,#792,#793);
#655=AXIS2_PLACEMENT_3D('',#1058,#794,#795);
#656=AXIS2_PLACEMENT_3D('',#1059,#796,#797);
#657=AXIS2_PLACEMENT_3D('',#1060,#798,#799);
#658=AXIS2_PLACEMENT_3D('',#1061,#800,#801);
#659=AXIS2_PLACEMENT_3D('',#1062,#802,#803);
#660=AXIS2_PLACEMENT_3D('',#1064,#804,#805);
#661=AXIS2_PLACEMENT_3D('',#1065,#806,#807);
#662=AXIS2_PLACEMENT_3D('',#1067,#808,#809);
#663=AXIS2_PLACEMENT_3D('',#1068,#810,#811);
#664=AXIS2_PLACEMENT_3D('',#1069,#812,#813);
#665=AXIS2_PLACEMENT_3D('',#1071,#814,#815);
#666=AXIS2_PLACEMENT_3D('',#1073,#816,#817);
#667=AXIS2_PLACEMENT_3D('',#1074,#818,#819);
#668=AXIS2_PLACEMENT_3D('',#1076,#820,#821);
#669=AXIS2_PLACEMENT_3D('',#1078,#822,#823);
#670=AXIS2_PLACEMENT_3D('',#1079,#824,#825);
#671=AXIS2_PLACEMENT_3D('',#1080,#826,#827);
#672=AXIS2_PLACEMENT_3D('',#1081,#828,#829);
#673=AXIS2_PLACEMENT_3D('',#1083,#830,#831);
#674=AXIS2_PLACEMENT_3D('',#1085,#832,#833);
#675=AXIS2_PLACEMENT_3D('',#1086,#834,#835);
#676=AXIS2_PLACEMENT_3D('',#1088,#836,#837);
#677=AXIS2_PLACEMENT_3D('',#1090,#838,#839);
#678=AXIS2_PLACEMENT_3D('',#1091,#840,#841);
#679=AXIS2_PLACEMENT_3D('',#1092,#842,#843);
#680=DIRECTION('',(0.,0.,1.));
#681=DIRECTION('',(1.,0.,0.));
#682=DIRECTION('',(0.,1.,0.));
#683=DIRECTION('',(1.,0.,6.12323399573677E-017));
#684=DIRECTION('',(0.,1.,0.));
#685=DIRECTION('',(1.,0.,6.12323399573677E-017));
#686=DIRECTION('',(0.,1.,0.));
#687=DIRECTION('',(0.,0.,-1.));
#688=DIRECTION('',(0.,1.,0.));
#689=DIRECTION('',(0.,0.,-1.));
#690=DIRECTION('',(0.,1.,0.));
#691=DIRECTION('',(0.,0.,-1.));
#692=DIRECTION('',(0.,-1.,0.));
#693=DIRECTION('',(1.,0.,-6.12323399573677E-017));
#694=DIRECTION('',(0.,-1.,0.));
#695=DIRECTION('',(1.,0.,-6.12323399573677E-017));
#696=DIRECTION('',(0.,-1.,0.));
#697=DIRECTION('',(0.,0.,1.));
#698=DIRECTION('',(0.,1.,0.));
#699=DIRECTION('',(1.,0.,6.12323399573677E-017));
#700=DIRECTION('',(0.,-1.,0.));
#701=DIRECTION('',(0.,1.,0.));
#702=DIRECTION('',(1.,0.,6.12323399573677E-017));
#703=DIRECTION('',(0.,-1.,0.));
#704=DIRECTION('',(0.,-1.,0.));
#705=DIRECTION('',(0.,0.,1.));
#706=DIRECTION('',(0.,1.,0.));
#707=DIRECTION('',(0.,0.,-1.));
#708=DIRECTION('',(0.,1.,0.));
#709=DIRECTION('',(1.,0.,6.12323399573677E-017));
#710=DIRECTION('',(0.,-1.,0.));
#711=DIRECTION('',(0.,0.,1.));
#712=DIRECTION('',(0.,1.,0.));
#713=DIRECTION('',(1.,0.,6.12323399573677E-017));
#714=DIRECTION('',(0.,-1.,0.));
#715=DIRECTION('',(0.,1.,0.));
#716=DIRECTION('',(1.,0.,6.12323399573677E-017));
#717=DIRECTION('',(0.,-1.,0.));
#718=DIRECTION('',(0.,-1.,0.));
#719=DIRECTION('',(0.,0.,1.));
#720=DIRECTION('',(0.,0.,-1.));
#721=DIRECTION('',(0.,0.,-1.));
#722=DIRECTION('',(-1.,0.,0.));
#723=DIRECTION('',(0.,0.,-1.));
#724=DIRECTION('',(0.,0.,1.));
#725=DIRECTION('',(0.,0.,1.));
#726=DIRECTION('',(1.,0.,0.));
#727=DIRECTION('',(0.,0.,1.));
#728=DIRECTION('',(0.,1.,0.));
#729=DIRECTION('',(0.,0.,1.));
#730=DIRECTION('',(0.,1.,0.));
#731=DIRECTION('',(0.,0.,1.));
#732=DIRECTION('',(0.,1.,0.));
#733=DIRECTION('',(0.,0.,1.));
#734=DIRECTION('',(0.,1.,0.));
#735=DIRECTION('',(0.,0.,1.));
#736=DIRECTION('',(0.,1.,0.));
#737=DIRECTION('',(0.,0.,1.));
#738=DIRECTION('',(0.,1.,0.));
#739=DIRECTION('',(0.,0.,1.));
#740=DIRECTION('',(0.,1.,0.));
#741=DIRECTION('',(0.,0.,1.));
#742=DIRECTION('',(0.,1.,0.));
#743=DIRECTION('',(0.,0.,1.));
#744=DIRECTION('',(0.,1.,0.));
#745=DIRECTION('',(0.,0.,1.));
#746=DIRECTION('',(0.,1.,0.));
#747=DIRECTION('',(0.,0.,-1.));
#748=DIRECTION('',(0.,-1.,0.));
#749=DIRECTION('',(-1.,0.,0.));
#750=DIRECTION('',(0.,-1.,0.));
#751=DIRECTION('',(-0.866025403784439,0.,-0.499999999999999));
#752=DIRECTION('',(0.,-1.,0.));
#753=DIRECTION('',(-0.5,0.,-0.866025403784439));
#754=DIRECTION('',(0.,-1.,0.));
#755=DIRECTION('',(0.,0.,-1.));
#756=DIRECTION('',(0.,1.,0.));
#757=DIRECTION('',(-1.,0.,0.));
#758=DIRECTION('',(0.,1.,0.));
#759=DIRECTION('',(-0.866025403784439,0.,0.499999999999999));
#760=DIRECTION('',(0.,1.,0.));
#761=DIRECTION('',(-0.5,0.,0.866025403784439));
#762=DIRECTION('',(0.,1.,0.));
#763=DIRECTION('',(0.,0.,1.));
#764=DIRECTION('',(0.,1.,0.));
#765=DIRECTION('',(0.,0.,1.));
#766=DIRECTION('',(0.,1.,0.));
#767=DIRECTION('',(0.,0.,-1.));
#768=DIRECTION('',(0.,-1.,0.));
#769=DIRECTION('',(0.,0.,-1.));
#770=DIRECTION('',(0.,-1.,0.));
#771=DIRECTION('',(0.,0.,1.));
#772=DIRECTION('',(0.,1.,0.));
#773=DIRECTION('',(1.,0.,6.12323399573677E-017));
#774=DIRECTION('',(0.,-1.,0.));
#775=DIRECTION('',(0.,0.,1.));
#776=DIRECTION('',(0.,1.,0.));
#777=DIRECTION('',(0.,0.,-1.));
#778=DIRECTION('',(0.,1.,0.));
#779=DIRECTION('',(0.,0.,1.));
#780=DIRECTION('',(0.,-1.,0.));
#781=DIRECTION('',(0.,0.,1.));
#782=DIRECTION('',(0.,1.,0.));
#783=DIRECTION('',(0.,0.,-1.));
#784=DIRECTION('',(0.,-1.,0.));
#785=DIRECTION('',(0.,0.,1.));
#786=DIRECTION('',(0.,1.,0.));
#787=DIRECTION('',(0.,0.,-1.));
#788=DIRECTION('',(0.,1.,0.));
#789=DIRECTION('',(0.5,0.,-0.866025403784439));
#790=DIRECTION('',(0.,1.,0.));
#791=DIRECTION('',(0.866025403784439,0.,-0.5));
#792=DIRECTION('',(0.,1.,0.));
#793=DIRECTION('',(1.,0.,0.));
#794=DIRECTION('',(0.,1.,0.));
#795=DIRECTION('',(0.,0.,1.));
#796=DIRECTION('',(0.,1.,0.));
#797=DIRECTION('',(0.5,0.,0.866025403784439));
#798=DIRECTION('',(0.,1.,0.));
#799=DIRECTION('',(0.866025403784439,0.,0.5));
#800=DIRECTION('',(0.,1.,0.));
#801=DIRECTION('',(1.,0.,0.));
#802=DIRECTION('',(-0.5,-1.23215503311E-016,0.866025403784439));
#803=DIRECTION('',(0.86602540378444,0.,0.499999999999999));
#804=DIRECTION('',(-0.5,-1.23215503311E-016,0.866025403784439));
#805=DIRECTION('',(0.866025403784438,0.,0.500000000000002));
#806=DIRECTION('',(-0.5,-1.23215503311E-016,0.866025403784439));
#807=DIRECTION('',(0.866025403784439,0.,0.5));
#808=DIRECTION('',(0.5,1.23215503311E-016,-0.866025403784439));
#809=DIRECTION('',(-0.866025403784439,0.,-0.5));
#810=DIRECTION('',(-0.5,-1.23215503311E-016,0.866025403784439));
#811=DIRECTION('',(0.866025403784439,0.,0.499999999999998));
#812=DIRECTION('',(0.,1.,0.));
#813=DIRECTION('',(0.,0.,1.));
#814=DIRECTION('',(0.,1.,0.));
#815=DIRECTION('',(0.,0.,1.));
#816=DIRECTION('',(0.,-1.,0.));
#817=DIRECTION('',(0.,0.,1.));
#818=DIRECTION('',(0.,-1.,0.));
#819=DIRECTION('',(1.,0.,-6.12323399573677E-017));
#820=DIRECTION('',(0.,-1.,0.));
#821=DIRECTION('',(1.,0.,-6.12323399573677E-017));
#822=DIRECTION('',(0.,-1.,0.));
#823=DIRECTION('',(0.,0.,1.));
#824=DIRECTION('',(0.,1.,0.));
#825=DIRECTION('',(0.,0.,-1.));
#826=DIRECTION('',(0.,1.,0.));
#827=DIRECTION('',(0.,0.,-1.));
#828=DIRECTION('',(0.,1.,0.));
#829=DIRECTION('',(0.,0.,1.));
#830=DIRECTION('',(0.,1.,0.));
#831=DIRECTION('',(0.,0.,1.));
#832=DIRECTION('',(0.,1.,0.));
#833=DIRECTION('',(0.,0.,1.));
#834=DIRECTION('',(0.,-1.,0.));
#835=DIRECTION('',(1.,0.,-6.12323399573677E-017));
#836=DIRECTION('',(0.,-1.,0.));
#837=DIRECTION('',(1.,0.,-6.12323399573677E-017));
#838=DIRECTION('',(0.,1.,0.));
#839=DIRECTION('',(0.,0.,1.));
#840=DIRECTION('',(0.,-1.,0.));
#841=DIRECTION('',(0.,0.,-1.));
#842=DIRECTION('',(0.,-1.,0.));
#843=DIRECTION('',(0.,0.,-1.));
#844=CARTESIAN_POINT('',(0.,0.,0.));
#845=CARTESIAN_POINT('',(0.,-66.5,0.));
#846=CARTESIAN_POINT('',(40.,-66.5,2.44929359829471E-015));
#847=CARTESIAN_POINT('',(0.,126.5,0.));
#848=CARTESIAN_POINT('',(40.,126.5,2.44929359829471E-015));
#849=CARTESIAN_POINT('',(0.,-150.,0.));
#850=CARTESIAN_POINT('',(0.,-66.5,0.));
#851=CARTESIAN_POINT('',(0.,126.5,0.));
#852=CARTESIAN_POINT('',(0.,101.,0.));
#853=CARTESIAN_POINT('',(40.,101.,-2.44929359829471E-015));
#854=CARTESIAN_POINT('',(0.,-41.,0.));
#855=CARTESIAN_POINT('',(40.,-41.,-2.44929359829471E-015));
#856=CARTESIAN_POINT('',(21.7070351630071,-36.5,-33.5976877840124));
#857=CARTESIAN_POINT('',(21.7070351630071,-36.2763082360757,-33.5976877840124));
#858=CARTESIAN_POINT('',(21.6746009180037,-36.0495322922622,-33.618702541272));
#859=CARTESIAN_POINT('',(21.6122782209942,-35.8384576798889,-33.6587199711804));
#860=CARTESIAN_POINT('',(21.5499574120723,-35.6273894620936,-33.698736188747));
#861=CARTESIAN_POINT('',(21.4560234220117,-35.4262017319337,-33.7588295851822));
#862=CARTESIAN_POINT('',(21.3378605695108,-35.2515050629167,-33.833351981678));
#863=CARTESIAN_POINT('',(21.2196048320352,-35.0766710690523,-33.9079329584363));
#864=CARTESIAN_POINT('',(21.0737999111122,-34.923547265971,-33.9989848053963));
#865=CARTESIAN_POINT('',(20.9120344108186,-34.8047904733557,-34.0981937468943));
#866=CARTESIAN_POINT('',(20.7501859938747,-34.6859728091984,-34.1974535402309));
#867=CARTESIAN_POINT('',(20.5678684428882,-34.5982815745104,-34.3075869852335));
#868=CARTESIAN_POINT('',(20.3798654414722,-34.5490066251183,-34.4189059179324));
#869=CARTESIAN_POINT('',(20.1920226754649,-34.4997736728838,-34.5301299732383));
#870=CARTESIAN_POINT('',(19.9933088485565,-34.4875356862527,-34.6455915872309));
#871=CARTESIAN_POINT('',(19.8001586387532,-34.5133123390894,-34.7556285784074));
#872=CARTESIAN_POINT('',(19.6071795226335,-34.5390661588031,-34.8655680981176));
#873=CARTESIAN_POINT('',(19.4144403504798,-34.6034723098708,-34.9731318137956));
#874=CARTESIAN_POINT('',(19.2381227868903,-34.701185712325,-35.069853601584));
#875=CARTESIAN_POINT('',(19.0617239602662,-34.7989441499273,-35.166619967495));
#876=CARTESIAN_POINT('',(18.8969170941002,-34.9327291547147,-35.2552316305168));
#877=CARTESIAN_POINT('',(18.7577337091713,-35.0914868475687,-35.3291299934745));
#878=CARTESIAN_POINT('',(18.6183985900208,-35.2504176140621,-35.4031089185667));
#879=CARTESIAN_POINT('',(18.5009219118488,-35.4387624223295,-35.464420979391));
#880=CARTESIAN_POINT('',(18.4154654983052,-35.6409483603452,-35.508740198446));
#881=CARTESIAN_POINT('',(18.3300073329383,-35.8431384430941,-35.5530603260277));
#882=CARTESIAN_POINT('',(18.2742330268791,-36.0647570698825,-35.581638174792));
#883=CARTESIAN_POINT('',(18.2530277867551,-36.2874233646071,-35.5925129292095));
#884=CARTESIAN_POINT('',(18.2318455253112,-36.5098483709746,-35.6033758993935));
#885=CARTESIAN_POINT('',(18.2445780736848,-36.7394553294179,-35.5968817723971));
#886=CARTESIAN_POINT('',(18.2901083384485,-36.9572133854879,-35.5734723771495));
#887=CARTESIAN_POINT('',(18.3356160259623,-37.1748634611174,-35.5500745899997));
#888=CARTESIAN_POINT('',(18.4151273049901,-37.3866741985155,-35.5091192682342));
#889=CARTESIAN_POINT('',(18.5217268725609,-37.5751552235992,-35.4534290818005));
#890=CARTESIAN_POINT('',(18.6284187858284,-37.7637995271276,-35.3976906517464));
#891=CARTESIAN_POINT('',(18.7651642530164,-37.9342747942992,-35.3256221310156));
#892=CARTESIAN_POINT('',(18.9202116809908,-38.0725072948516,-35.2423834316934));
#893=CARTESIAN_POINT('',(19.0753950082248,-38.2108609563592,-35.1590717735498));
#894=CARTESIAN_POINT('',(19.2531775218447,-38.3207308306331,-35.0622317735589));
#895=CARTESIAN_POINT('',(19.4384564539944,-38.3929997911822,-34.9592106702392));
#896=CARTESIAN_POINT('',(19.6236465734826,-38.4652341099151,-34.8562389496435));
#897=CARTESIAN_POINT('',(19.8214275884507,-38.5018931858757,-34.7442242800819));
#898=CARTESIAN_POINT('',(20.0152451445324,-38.4999225073308,-34.6322098891231));
#899=CARTESIAN_POINT('',(20.2088523664488,-38.4979539674003,-34.5203170581193));
#900=CARTESIAN_POINT('',(20.4038436151459,-38.4573877535354,-34.4053401233116));
#901=CARTESIAN_POINT('',(20.5842362592802,-38.3815961638248,-34.2970730182932));
#902=CARTESIAN_POINT('',(20.7646290730166,-38.3058045028562,-34.1888058114838));
#903=CARTESIAN_POINT('',(20.9354086662478,-38.1927055150684,-34.084289282588));
#904=CARTESIAN_POINT('',(21.0828762412358,-38.0516530098118,-33.9928276169656));
#905=CARTESIAN_POINT('',(21.2305038981071,-37.9104473864837,-33.9012666660887));
#906=CARTESIAN_POINT('',(21.3588616670658,-37.7373337504574,-33.8203011635117));
#907=CARTESIAN_POINT('',(21.4577948801115,-37.5466144347696,-33.7574145764018));
#908=CARTESIAN_POINT('',(21.5567755448197,-37.3558036437488,-33.6944978267911));
#909=CARTESIAN_POINT('',(21.6290520489185,-37.1420976805721,-33.6479770382358));
#910=CARTESIAN_POINT('',(21.6689346812553,-36.9232069615577,-33.6222734177731));
#911=CARTESIAN_POINT('',(21.6941983244354,-36.7845506919839,-33.6059914660122));
#912=CARTESIAN_POINT('',(21.7070351630071,-36.641876406467,-33.5976877840124));
#913=CARTESIAN_POINT('',(21.7070351630071,-36.5,-33.5976877840124));
#914=CARTESIAN_POINT('',(21.7070351630071,-36.5,-33.5976877840124));
#915=CARTESIAN_POINT('',(0.,-26.5,0.));
#916=CARTESIAN_POINT('',(0.,-46.5,0.));
#917=CARTESIAN_POINT('',(55.,-46.5,-47.236109069228));
#918=CARTESIAN_POINT('',(-55.,-46.5,-47.236109069228));
#919=CARTESIAN_POINT('',(-55.,-26.5,-47.236109069228));
#920=CARTESIAN_POINT('',(-55.,-26.5,-47.236109069228));
#921=CARTESIAN_POINT('',(0.,-26.5,0.));
#922=CARTESIAN_POINT('',(55.,-26.5,-47.236109069228));
#923=CARTESIAN_POINT('',(55.,-26.5,-47.236109069228));
#924=CARTESIAN_POINT('',(36.25,-40.,-62.7868417743718));
#925=CARTESIAN_POINT('',(36.5890310825886,-40.,-62.5911020875756));
#926=CARTESIAN_POINT('',(36.9310641706504,-39.9324503593232,-62.3897667074558));
#927=CARTESIAN_POINT('',(37.2480234238994,-39.802968652172,-62.1999578055535));
#928=CARTESIAN_POINT('',(37.5649737539751,-39.6734905902456,-62.0101542472332));
#929=CARTESIAN_POINT('',(37.8656146544546,-39.4785248180164,-61.8266834249325));
#930=CARTESIAN_POINT('',(38.1257764729107,-39.2342074331709,-61.6658346926209));
#931=CARTESIAN_POINT('',(38.386128454851,-38.9897114662204,-61.5048683890395));
#932=CARTESIAN_POINT('',(38.6131598157511,-38.6890500662574,-61.362180105855));
#933=CARTESIAN_POINT('',(38.7888749697194,-38.3570662065387,-61.250903491977));
#934=CARTESIAN_POINT('',(38.9646743065824,-38.0249232975765,-61.1395735668889));
#935=CARTESIAN_POINT('',(39.0939889232651,-37.6522511942524,-61.0566743246813));
#936=CARTESIAN_POINT('',(39.1666208511414,-37.2699304539542,-61.0100468046283));
#937=CARTESIAN_POINT('',(39.239195068545,-36.8879134906759,-60.9634563329685));
#938=CARTESIAN_POINT('',(39.2571916699984,-36.4857174951023,-60.9518247737822));
#939=CARTESIAN_POINT('',(39.2191944666857,-36.0967013251683,-60.9762641146888));
#940=CARTESIAN_POINT('',(39.1812287474525,-35.7080074899054,-61.0006832054169));
#941=CARTESIAN_POINT('',(39.0863134619559,-35.3217577633197,-61.0617671647186));
#942=CARTESIAN_POINT('',(38.9419066086533,-34.9698895197611,-61.1537235962204));
#943=CARTESIAN_POINT('',(38.7974374298116,-34.6178694109868,-61.2457197158259));
#944=CARTESIAN_POINT('',(38.5994305320563,-34.2905572108892,-61.3710946933451));
#945=CARTESIAN_POINT('',(38.3635136586395,-34.0149641629607,-61.5182153493043));
#946=CARTESIAN_POINT('',(38.127356636916,-33.7390905789143,-61.6654857646932));
#947=CARTESIAN_POINT('',(37.846656903347,-33.5074327166925,-61.8385463544685));
#948=CARTESIAN_POINT('',(37.5438942646506,-33.3391741207004,-62.0218187692423));
#949=CARTESIAN_POINT('',(37.2411265568794,-33.1709127075991,-62.2050942524977));
#950=CARTESIAN_POINT('',(36.9079011804627,-33.0614155892563,-62.4035949952866));
#951=CARTESIAN_POINT('',(36.571445807326,-33.0197957837296,-62.6001545649994));
#952=CARTESIAN_POINT('',(36.235329792101,-32.9782179570548,-62.7965158794593));
#953=CARTESIAN_POINT('',(35.8867094646825,-33.003234109144,-62.9963437744805));
#954=CARTESIAN_POINT('',(35.554574393752,-33.0927623288422,-63.1832433456779));
#955=CARTESIAN_POINT('',(35.2225921427225,-33.1822493553788,-63.3700569218196));
#956=CARTESIAN_POINT('',(34.8979477363678,-33.3386447865401,-63.5491315166716));
#957=CARTESIAN_POINT('',(34.6080089993029,-33.5489938337636,-63.7066379045713));
#958=CARTESIAN_POINT('',(34.3178368706435,-33.7595122053763,-63.864271080176));
#959=CARTESIAN_POINT('',(34.0544594736083,-34.0298693640453,-64.0047058950823));
#960=CARTESIAN_POINT('',(33.8403974879807,-34.3377318519613,-64.1176847512094));
#961=CARTESIAN_POINT('',(33.6261606630477,-34.6458457925739,-64.2307558850226));
#962=CARTESIAN_POINT('',(33.455447819656,-35.0000365226161,-64.3195073501874));
#963=CARTESIAN_POINT('',(33.3430765364758,-35.3709841123445,-64.3777076873875));
#964=CARTESIAN_POINT('',(33.2307553623231,-35.7417662877206,-64.4358820716732));
#965=CARTESIAN_POINT('',(33.1736526916649,-36.1395310033141,-64.4651749348468));
#966=CARTESIAN_POINT('',(33.1767694995098,-36.5312802076766,-64.4635708410292));
#967=CARTESIAN_POINT('',(33.1798831457596,-36.9226320335613,-64.4619683743556));
#968=CARTESIAN_POINT('',(33.243175525359,-37.318771581913,-64.4294880275394));
#969=CARTESIAN_POINT('',(33.361116237063,-37.686904728539,-64.3683611987844));
#970=CARTESIAN_POINT('',(33.4790571250696,-38.0550384254654,-64.3072342786545));
#971=CARTESIAN_POINT('',(33.6548631260972,-38.405311278053,-64.2157398366051));
#972=CARTESIAN_POINT('',(33.873328149027,-38.7088144466615,-64.1002936039168));
#973=CARTESIAN_POINT('',(34.0920148943788,-39.0126256437896,-63.9847302036472));
#974=CARTESIAN_POINT('',(34.3594412732479,-39.2779506918298,-63.8419164059745));
#975=CARTESIAN_POINT('',(34.652738900949,-39.4828532012547,-63.6823184774444));
#976=CARTESIAN_POINT('',(34.9461670370052,-39.6878468859463,-63.522649532782));
#977=CARTESIAN_POINT('',(35.2735631554219,-39.8380159452428,-63.3417121081448));
#978=CARTESIAN_POINT('',(35.6072581081525,-39.9208783797204,-63.1535681495465));
#979=CARTESIAN_POINT('',(35.818466626971,-39.9733252384711,-63.0344845179391));
#980=CARTESIAN_POINT('',(36.0351617653946,-40.,-62.9108786869534));
#981=CARTESIAN_POINT('',(36.25,-40.,-62.7868417743718));
#982=CARTESIAN_POINT('',(36.25,-40.,-62.7868417743718));
#983=CARTESIAN_POINT('',(0.,-26.5,0.));
#984=CARTESIAN_POINT('',(0.,106.5,0.));
#985=CARTESIAN_POINT('',(0.,106.5,-52.));
#986=CARTESIAN_POINT('',(0.,106.5,0.));
#987=CARTESIAN_POINT('',(46.5,106.5,2.8473038080176E-015));
#988=CARTESIAN_POINT('',(0.,106.5,0.));
#989=CARTESIAN_POINT('',(0.,-46.5,0.));
#990=CARTESIAN_POINT('',(-55.,-46.5,47.236109069228));
#991=CARTESIAN_POINT('',(54.9999999999999,-46.5,47.236109069228));
#992=CARTESIAN_POINT('',(54.9999999999999,-26.5,47.236109069228));
#993=CARTESIAN_POINT('',(54.9999999999999,-26.5,47.236109069228));
#994=CARTESIAN_POINT('',(0.,-26.5,0.));
#995=CARTESIAN_POINT('',(-55.,-26.5,47.236109069228));
#996=CARTESIAN_POINT('',(-55.,-26.5,47.236109069228));
#997=CARTESIAN_POINT('',(0.,-26.5,0.));
#998=CARTESIAN_POINT('',(55.,-46.5,47.236109069228));
#999=CARTESIAN_POINT('',(55.,-26.5,47.236109069228));
#1000=CARTESIAN_POINT('',(55.,-26.5,47.236109069228));
#1001=CARTESIAN_POINT('',(-55.,-46.5,-47.236109069228));
#1002=CARTESIAN_POINT('',(-55.,-26.5,-47.236109069228));
#1003=CARTESIAN_POINT('',(-55.,-26.5,-47.236109069228));
#1004=CARTESIAN_POINT('',(44.1941738241592,-26.5,44.1941738241592));
#1005=CARTESIAN_POINT('',(44.1941738241592,-26.5,50.9441738241592));
#1006=CARTESIAN_POINT('',(16.1761903189075,-26.5,60.3703641430668));
#1007=CARTESIAN_POINT('',(16.1761903189075,-26.5,67.1203641430668));
#1008=CARTESIAN_POINT('',(-16.1761903189076,-26.5,60.3703641430668));
#1009=CARTESIAN_POINT('',(-16.1761903189076,-26.5,67.1203641430668));
#1010=CARTESIAN_POINT('',(-44.1941738241592,-26.5,44.1941738241592));
#1011=CARTESIAN_POINT('',(-44.1941738241592,-26.5,50.9441738241592));
#1012=CARTESIAN_POINT('',(44.1941738241592,-26.5,-44.1941738241592));
#1013=CARTESIAN_POINT('',(44.1941738241592,-26.5,-37.4441738241592));
#1014=CARTESIAN_POINT('',(16.1761903189075,-26.5,-60.3703641430668));
#1015=CARTESIAN_POINT('',(16.1761903189075,-26.5,-53.6203641430668));
#1016=CARTESIAN_POINT('',(-16.1761903189076,-26.5,-60.3703641430668));
#1017=CARTESIAN_POINT('',(-16.1761903189076,-26.5,-53.6203641430668));
#1018=CARTESIAN_POINT('',(-44.1941738241592,-26.5,-44.1941738241592));
#1019=CARTESIAN_POINT('',(-44.1941738241592,-26.5,-37.4441738241592));
#1020=CARTESIAN_POINT('',(0.,-26.5,0.));
#1021=CARTESIAN_POINT('',(0.,-26.5,52.5));
#1022=CARTESIAN_POINT('',(0.,-26.5,0.));
#1023=CARTESIAN_POINT('',(44.1941738241592,-46.5,44.1941738241592));
#1024=CARTESIAN_POINT('',(37.4441738241592,-46.5,44.1941738241592));
#1025=CARTESIAN_POINT('',(16.1761903189075,-46.5,60.3703641430668));
#1026=CARTESIAN_POINT('',(10.3305188433626,-46.5,56.9953641430667));
#1027=CARTESIAN_POINT('',(-16.1761903189076,-46.5,60.3703641430668));
#1028=CARTESIAN_POINT('',(-19.5511903189075,-46.5,54.5246926675218));
#1029=CARTESIAN_POINT('',(-44.1941738241592,-46.5,44.1941738241592));
#1030=CARTESIAN_POINT('',(-44.1941738241592,-46.5,37.4441738241592));
#1031=CARTESIAN_POINT('',(44.1941738241592,-46.5,-44.1941738241592));
#1032=CARTESIAN_POINT('',(37.4441738241592,-46.5,-44.1941738241592));
#1033=CARTESIAN_POINT('',(16.1761903189075,-46.5,-60.3703641430668));
#1034=CARTESIAN_POINT('',(10.3305188433626,-46.5,-56.9953641430667));
#1035=CARTESIAN_POINT('',(-16.1761903189076,-46.5,-60.3703641430668));
#1036=CARTESIAN_POINT('',(-19.5511903189075,-46.5,-54.5246926675218));
#1037=CARTESIAN_POINT('',(-44.1941738241592,-46.5,-44.1941738241592));
#1038=CARTESIAN_POINT('',(-44.1941738241592,-46.5,-37.4441738241592));
#1039=CARTESIAN_POINT('',(0.,-46.5,0.));
#1040=CARTESIAN_POINT('',(0.,-46.5,46.5));
#1041=CARTESIAN_POINT('',(0.,-46.5,0.));
#1042=CARTESIAN_POINT('',(0.,106.,0.));
#1043=CARTESIAN_POINT('',(0.,106.,-52.5));
#1044=CARTESIAN_POINT('',(0.,46.5,0.));
#1045=CARTESIAN_POINT('',(0.,101.,0.));
#1046=CARTESIAN_POINT('',(46.5,101.,2.8473038080176E-015));
#1047=CARTESIAN_POINT('',(0.,46.5,0.));
#1048=CARTESIAN_POINT('',(0.,101.,0.));
#1049=CARTESIAN_POINT('',(0.,-41.,0.));
#1050=CARTESIAN_POINT('',(0.,-41.,46.5));
#1051=CARTESIAN_POINT('',(0.,-41.,0.));
#1052=CARTESIAN_POINT('',(0.,-41.,0.));
#1053=CARTESIAN_POINT('',(0.,106.,0.));
#1054=CARTESIAN_POINT('',(-44.1941738241592,-46.5,-44.1941738241592));
#1055=CARTESIAN_POINT('',(-16.1761903189076,-46.5,-60.3703641430668));
#1056=CARTESIAN_POINT('',(16.1761903189075,-46.5,-60.3703641430668));
#1057=CARTESIAN_POINT('',(44.1941738241592,-46.5,-44.1941738241592));
#1058=CARTESIAN_POINT('',(-44.1941738241592,-46.5,44.1941738241592));
#1059=CARTESIAN_POINT('',(-16.1761903189076,-46.5,60.3703641430668));
#1060=CARTESIAN_POINT('',(16.1761903189075,-46.5,60.3703641430668));
#1061=CARTESIAN_POINT('',(44.1941738241592,-46.5,44.1941738241592));
#1062=CARTESIAN_POINT('',(32.25,-36.5,-55.8586385440963));
#1063=CARTESIAN_POINT('',(33.9820508075689,-36.5,-54.8586385440963));
#1064=CARTESIAN_POINT('',(-38.1663935909663,-36.5,66.1061328412249));
#1065=CARTESIAN_POINT('',(32.25,-36.5,-55.8586385440963));
#1066=CARTESIAN_POINT('',(35.2810889132455,-36.5,-54.1086385440963));
#1067=CARTESIAN_POINT('',(32.25,-33.,-55.8586385440963));
#1068=CARTESIAN_POINT('',(-38.1663935909663,-36.5,66.1061328412249));
#1069=CARTESIAN_POINT('',(0.,-41.,0.));
#1070=CARTESIAN_POINT('',(0.,-41.,46.5));
#1071=CARTESIAN_POINT('',(0.,-46.5,0.));
#1072=CARTESIAN_POINT('',(0.,-46.5,46.5));
#1073=CARTESIAN_POINT('',(0.,-41.,0.));
#1074=CARTESIAN_POINT('',(0.,-41.,0.));
#1075=CARTESIAN_POINT('',(40.,-41.,-2.44929359829471E-015));
#1076=CARTESIAN_POINT('',(0.,-46.5,0.));
#1077=CARTESIAN_POINT('',(40.,-46.5,-2.44929359829471E-015));
#1078=CARTESIAN_POINT('',(0.,-41.,0.));
#1079=CARTESIAN_POINT('',(0.,-41.,0.));
#1080=CARTESIAN_POINT('',(0.,-46.5,0.));
#1081=CARTESIAN_POINT('',(0.,101.,0.));
#1082=CARTESIAN_POINT('',(0.,101.,46.5));
#1083=CARTESIAN_POINT('',(0.,106.5,0.));
#1084=CARTESIAN_POINT('',(0.,106.5,46.5));
#1085=CARTESIAN_POINT('',(0.,101.,0.));
#1086=CARTESIAN_POINT('',(0.,101.,0.));
#1087=CARTESIAN_POINT('',(40.,101.,-2.44929359829471E-015));
#1088=CARTESIAN_POINT('',(0.,106.5,0.));
#1089=CARTESIAN_POINT('',(40.,106.5,-2.44929359829471E-015));
#1090=CARTESIAN_POINT('',(0.,101.,0.));
#1091=CARTESIAN_POINT('',(0.,101.,0.));
#1092=CARTESIAN_POINT('',(0.,106.5,0.));
#1093=(
GEOMETRIC_REPRESENTATION_CONTEXT(3)
GLOBAL_UNCERTAINTY_ASSIGNED_CONTEXT((#1094))
GLOBAL_UNIT_ASSIGNED_CONTEXT((#1100,#1096,#1095))
REPRESENTATION_CONTEXT('OFU08010-4','TOP_LEVEL_ASSEMBLY_PART')
);
#1094=UNCERTAINTY_MEASURE_WITH_UNIT(LENGTH_MEASURE(0.0508),#1100,
'DISTANCE_ACCURACY_VALUE','Maximum Tolerance applied to model');
#1095=(
NAMED_UNIT(*)
SI_UNIT($,.STERADIAN.)
SOLID_ANGLE_UNIT()
);
#1096=(
CONVERSION_BASED_UNIT('DEGREE',#1098)
NAMED_UNIT(#1097)
PLANE_ANGLE_UNIT()
);
#1097=DIMENSIONAL_EXPONENTS(0.,0.,0.,0.,0.,0.,0.);
#1098=PLANE_ANGLE_MEASURE_WITH_UNIT(PLANE_ANGLE_MEASURE(0.0174532925),#1099);
#1099=(
NAMED_UNIT(*)
PLANE_ANGLE_UNIT()
SI_UNIT($,.RADIAN.)
);
#1100=(
LENGTH_UNIT()
NAMED_UNIT(*)
SI_UNIT(.MILLI.,.METRE.)
);
ENDSEC;
END-ISO-10303-21;
